<svg width="598" height="447" viewBox="0 0 598 447" fill="none" xmlns="http://www.w3.org/2000/svg">
<path d="M598 391.992H0.776733V392.292H598V391.992Z" fill="#747474"/>
<path d="M538.159 411.255H498.599V411.554H538.159V411.255Z" fill="#747474"/>
<path d="M396.401 414.514H386.021V414.813H396.401V414.514Z" fill="#747474"/>
<path d="M497.405 400.146H474.483V400.445H497.405V400.146Z" fill="#747474"/>
<path d="M115.026 402.156H63.4374V402.456H115.026V402.156Z" fill="#747474"/>
<path d="M133.227 402.156H125.666V402.456H133.227V402.156Z" fill="#747474"/>
<path d="M269.706 407.209H157.81V407.508H269.706V407.209Z" fill="#747474"/>
<path d="M283.86 338.592H53.2247C51.4179 338.589 49.6862 337.867 48.4097 336.586C47.1332 335.304 46.4163 333.567 46.4163 331.756V6.77663C46.432 4.97595 47.1559 3.25419 48.4307 1.98536C49.7055 0.716525 51.4282 0.00308467 53.2247 0H283.86C285.669 0 287.404 0.720272 288.683 2.00236C289.962 3.28446 290.681 5.02334 290.681 6.8365V331.756C290.681 333.569 289.962 335.308 288.683 336.59C287.404 337.872 285.669 338.592 283.86 338.592ZM53.2247 0.239458C51.4971 0.242629 49.8413 0.932763 48.6209 2.15838C47.4004 3.38399 46.7149 5.04494 46.7149 6.77663V331.756C46.7149 333.487 47.4004 335.148 48.6209 336.374C49.8413 337.6 51.4971 338.29 53.2247 338.293H283.86C285.589 338.29 287.246 337.6 288.468 336.375C289.691 335.149 290.379 333.488 290.382 331.756V6.77663C290.379 5.04384 289.691 3.38292 288.468 2.15765C287.246 0.932374 285.589 0.242623 283.86 0.239458H53.2247Z" fill="#747474"/>
<path d="M542.23 338.592H311.583C309.775 338.589 308.042 337.868 306.764 336.586C305.485 335.305 304.766 333.568 304.762 331.756V6.77663C304.781 4.97485 305.508 3.25311 306.784 1.98461C308.061 0.716106 309.785 0.00305103 311.583 0H542.23C544.025 0.00623126 545.744 0.721064 547.017 1.98956C548.289 3.25806 549.011 4.97801 549.027 6.77663V331.756C549.027 333.565 548.311 335.3 547.038 336.581C545.764 337.863 544.035 338.586 542.23 338.592ZM311.583 0.239458C309.854 0.242623 308.197 0.932374 306.975 2.15765C305.752 3.38292 305.064 5.04384 305.061 6.77663V331.756C305.064 333.488 305.752 335.149 306.975 336.375C308.197 337.6 309.854 338.29 311.583 338.293H542.23C543.959 338.29 545.616 337.6 546.838 336.375C548.061 335.149 548.749 333.488 548.752 331.756V6.77663C548.749 5.04384 548.061 3.38292 546.838 2.15765C545.616 0.932374 543.959 0.242623 542.23 0.239458H311.583Z" fill="#747474"/>
<path d="M492.268 350.577C492.268 350.577 483.095 332.617 493.582 314.826C504.069 297.034 507.103 292.891 500.414 289.252C493.725 285.612 490.667 303.451 490.667 303.451C490.667 303.451 485.03 291.179 489.688 278.309C494.346 265.438 497.261 244.545 490.882 242.306C484.504 240.067 489.688 268.395 484.146 278.057C484.146 278.057 479.523 267.282 478.759 256.985C477.994 246.688 479.189 230.202 474.172 225.975C469.155 221.749 465.93 224.682 470.863 247.443C473.825 261.004 475.465 274.822 475.761 288.701C475.761 288.701 464.867 258.841 457.557 257.979C450.247 257.117 450.259 266.779 456.518 275.16C462.777 283.541 474.841 298.579 476.824 306.289C476.824 306.289 464.879 283.828 454.129 290.724C443.379 297.621 463.494 311.186 472.464 316.083C481.434 320.98 487.645 351.738 487.645 351.738L492.268 350.577Z" fill="#E0E0E0"/>
<path d="M485.018 357.989C485.018 357.989 493.964 339.862 483.238 322.25C472.512 304.638 469.419 300.508 476.072 296.784C482.725 293.06 486.009 310.852 486.009 310.852C486.009 310.852 491.48 298.496 486.654 285.709C481.829 272.922 478.64 252.053 484.958 249.731C491.277 247.408 486.523 275.808 492.125 285.386C492.125 285.386 496.616 274.61 497.237 264.254C497.858 253.897 496.449 237.471 501.418 233.184C506.387 228.898 509.624 231.772 505.001 254.592C502.224 268.196 500.768 282.037 500.653 295.922C500.653 295.922 511.152 265.918 518.451 264.948C525.749 263.978 525.868 273.653 519.717 282.117C513.565 290.582 501.704 305.776 499.829 313.534C499.829 313.534 511.487 290.905 522.332 297.646C533.178 304.387 513.243 318.227 504.344 323.256C495.445 328.285 489.629 359.103 489.629 359.103L485.018 357.989Z" fill="#E6E6E6"/>
<path d="M526.249 345.045H452.409L458.381 392.553H520.277L526.249 345.045Z" fill="#F0F0F0"/>
<path d="M394.539 44.3711H260.02V193.577H394.539V44.3711Z" fill="#E9E9E9"/>
<path d="M388.971 50.2861H265.943V187.974H388.971V50.2861Z" fill="#F4F4F4"/>
<path d="M300.714 50.2861L265.943 180.814V110.15L281.854 50.2861H300.714Z" fill="white"/>
<path d="M316.254 50.2861L279.585 187.974H272.669L309.338 50.2861H316.254Z" fill="white"/>
<path d="M388.972 87.8335V158.509L381.184 187.974H362.324L388.972 87.8335Z" fill="white"/>
<path d="M329.668 44.3711H324.89V193.577H329.668V44.3711Z" fill="#E9E9E9"/>
<path d="M391.959 74.6499H262.361V79.439H391.959V74.6499Z" fill="#E9E9E9"/>
<path d="M210.594 44.3711H76.0753V193.577H210.594V44.3711Z" fill="#E9E9E9"/>
<path d="M205.027 50.2861H81.9988V187.974H205.027V50.2861Z" fill="#F4F4F4"/>
<path d="M116.769 50.2861L81.9988 180.814V110.15L97.9088 50.2861H116.769Z" fill="white"/>
<path d="M132.308 50.2861L95.6389 187.974H88.723L125.393 50.2861H132.308Z" fill="white"/>
<path d="M205.027 87.8335V158.509L197.239 187.974H178.379L205.027 87.8335Z" fill="white"/>
<path d="M145.722 44.3711H140.945V193.577H145.722V44.3711Z" fill="#E9E9E9"/>
<path d="M208.013 74.6499H78.4155V79.439H208.013V74.6499Z" fill="#E9E9E9"/>
<path d="M299.388 446.06C427.293 446.06 530.98 439.992 530.98 432.506C530.98 425.021 427.293 418.953 299.388 418.953C171.484 418.953 67.7972 425.021 67.7972 432.506C67.7972 439.992 171.484 446.06 299.388 446.06Z" fill="#F5F5F5"/>
<path d="M456.648 392.554H273.313C272.216 392.571 271.127 392.356 270.119 391.922C269.11 391.488 268.205 390.845 267.461 390.036C266.718 389.226 266.154 388.268 265.806 387.225C265.458 386.182 265.334 385.077 265.441 383.982L288.554 86.7678C288.763 84.4516 289.819 82.2947 291.519 80.7121C293.219 79.1295 295.443 78.2331 297.763 78.1953H481.087C482.185 78.1783 483.274 78.3939 484.283 78.8279C485.292 79.2618 486.198 79.9044 486.942 80.7136C487.686 81.5228 488.251 82.4804 488.601 83.5237C488.95 84.5669 489.076 85.6724 488.97 86.7678L465.858 383.982C465.646 386.297 464.589 388.452 462.89 390.034C461.19 391.617 458.968 392.514 456.648 392.554Z" fill="#2E353A"/>
<path opacity="0.2" d="M456.648 392.554H273.313C272.216 392.571 271.127 392.356 270.119 391.922C269.11 391.488 268.205 390.845 267.461 390.036C266.718 389.226 266.154 388.268 265.806 387.225C265.458 386.182 265.334 385.077 265.441 383.982L288.554 86.7678C288.763 84.4516 289.819 82.2947 291.519 80.7121C293.219 79.1295 295.443 78.2331 297.763 78.1953H481.087C482.185 78.1783 483.274 78.3939 484.283 78.8279C485.292 79.2618 486.198 79.9044 486.942 80.7136C487.686 81.5228 488.251 82.4804 488.601 83.5237C488.95 84.5669 489.076 85.6724 488.97 86.7678L465.858 383.982C465.646 386.297 464.589 388.452 462.89 390.034C461.19 391.617 458.968 392.514 456.648 392.554Z" fill="white"/>
<path d="M431.816 97.6266H344.024C343.64 97.6335 343.259 97.5589 342.906 97.4078C342.553 97.2567 342.236 97.0325 341.975 96.7499C341.714 96.4672 341.516 96.1325 341.394 95.7678C341.272 95.403 341.227 95.0165 341.265 94.6334L342.614 77.2608C342.688 76.4495 343.058 75.694 343.653 75.1394C344.248 74.5847 345.027 74.27 345.839 74.2556H433.631C434.015 74.2503 434.396 74.3264 434.748 74.479C435.101 74.6316 435.417 74.8572 435.677 75.1409C435.936 75.4247 436.133 75.7603 436.254 76.1257C436.375 76.491 436.417 76.8779 436.378 77.2608L435.029 94.5856C434.966 95.4022 434.603 96.1663 434.009 96.7287C433.414 97.291 432.633 97.6112 431.816 97.6266Z" fill="#15EBEB"/>
<path opacity="0.2" d="M431.816 97.6266H344.024C343.64 97.6335 343.259 97.5589 342.906 97.4078C342.553 97.2567 342.236 97.0325 341.975 96.7499C341.714 96.4672 341.516 96.1325 341.394 95.7678C341.272 95.403 341.227 95.0165 341.265 94.6334L342.614 77.2608C342.688 76.4495 343.058 75.694 343.653 75.1394C344.248 74.5847 345.027 74.27 345.839 74.2556H433.631C434.015 74.2503 434.396 74.3264 434.748 74.479C435.101 74.6316 435.417 74.8572 435.677 75.1409C435.936 75.4247 436.133 75.7603 436.254 76.1257C436.375 76.491 436.417 76.8779 436.378 77.2608L435.029 94.5856C434.966 95.4022 434.603 96.1663 434.009 96.7287C433.414 97.291 432.633 97.6112 431.816 97.6266Z" fill="black"/>
<path d="M396.137 79.6561H382.401L382.939 72.7597C383.106 70.8999 383.954 69.168 385.319 67.8972C386.684 66.6263 388.47 65.9061 390.332 65.8753C391.215 65.8612 392.09 66.0338 392.901 66.382C393.712 66.7302 394.441 67.246 395.039 67.8958C395.638 68.5455 396.093 69.3146 396.375 70.1528C396.657 70.9909 396.759 71.8793 396.675 72.7597L396.137 79.6561Z" fill="#15EBEB"/>
<path opacity="0.4" d="M396.137 79.6561H382.401L382.939 72.7597C383.106 70.8999 383.954 69.168 385.319 67.8972C386.684 66.6263 388.47 65.9061 390.332 65.8753C391.215 65.8612 392.09 66.0338 392.901 66.382C393.712 66.7302 394.441 67.246 395.039 67.8958C395.638 68.5455 396.093 69.3146 396.375 70.1528C396.657 70.9909 396.759 71.8793 396.675 72.7597L396.137 79.6561Z" fill="white"/>
<path d="M454.176 380.138H277.708L300.236 90.5991H476.691L454.176 380.138Z" fill="white"/>
<path d="M415.488 105.758H359.11C358.206 105.771 357.31 105.592 356.48 105.234C355.649 104.876 354.904 104.346 354.292 103.679C353.68 103.012 353.215 102.224 352.927 101.365C352.64 100.506 352.537 99.5956 352.624 98.6938L353.341 89.4987C353.514 87.5912 354.384 85.8152 355.784 84.5114C357.184 83.2077 359.015 82.4681 360.926 82.4347H417.315C418.22 82.4222 419.116 82.6008 419.947 82.9589C420.778 83.317 421.524 83.8465 422.137 84.5129C422.75 85.1794 423.216 85.9678 423.505 86.8268C423.794 87.6859 423.899 88.5963 423.813 89.4987L423.097 98.6938C422.918 100.603 422.042 102.38 420.639 103.683C419.235 104.986 417.401 105.725 415.488 105.758ZM360.711 84.8412C359.45 84.8626 358.242 85.3498 357.319 86.2095C356.395 87.0691 355.82 88.2405 355.706 89.4987L354.989 98.6938C354.93 99.2892 354.997 99.8904 355.186 100.458C355.375 101.026 355.681 101.547 356.085 101.988C356.489 102.428 356.981 102.779 357.529 103.016C358.077 103.253 358.668 103.371 359.265 103.363H415.667C416.93 103.342 418.141 102.853 419.067 101.992C419.993 101.13 420.569 99.9552 420.684 98.6938L421.4 89.4987C421.456 88.9036 421.386 88.3035 421.195 87.7374C421.003 87.1712 420.696 86.6517 420.291 86.2125C419.887 85.7733 419.395 85.4243 418.847 85.188C418.3 84.9518 417.709 84.8336 417.112 84.8412H360.711Z" fill="#15EBEB"/>
<g opacity="0.4">
<path opacity="0.4" d="M415.488 105.758H359.11C358.206 105.771 357.31 105.592 356.48 105.234C355.649 104.876 354.904 104.346 354.292 103.679C353.68 103.012 353.215 102.224 352.927 101.365C352.64 100.506 352.537 99.5956 352.624 98.6938L353.341 89.4987C353.514 87.5912 354.384 85.8152 355.784 84.5114C357.184 83.2077 359.015 82.4681 360.926 82.4347H417.315C418.22 82.4222 419.116 82.6008 419.947 82.9589C420.778 83.317 421.524 83.8465 422.137 84.5129C422.75 85.1794 423.216 85.9678 423.505 86.8268C423.794 87.6859 423.899 88.5963 423.813 89.4987L423.097 98.6938C422.918 100.603 422.042 102.38 420.639 103.683C419.235 104.986 417.401 105.725 415.488 105.758ZM360.711 84.8412C359.45 84.8626 358.242 85.3498 357.319 86.2095C356.395 87.0691 355.82 88.2405 355.706 89.4987L354.989 98.6938C354.93 99.2892 354.997 99.8904 355.186 100.458C355.375 101.026 355.681 101.547 356.085 101.988C356.489 102.428 356.981 102.779 357.529 103.016C358.077 103.253 358.668 103.371 359.265 103.363H415.667C416.93 103.342 418.141 102.853 419.067 101.992C419.993 101.13 420.569 99.9552 420.684 98.6938L421.4 89.4987C421.456 88.9036 421.386 88.3035 421.195 87.7374C421.003 87.1712 420.696 86.6517 420.291 86.2125C419.887 85.7733 419.395 85.4243 418.847 85.188C418.3 84.9518 417.709 84.8336 417.112 84.8412H360.711Z" fill="white"/>
</g>
<path d="M412.574 87.737H364.796C364.585 87.7414 364.376 87.701 364.182 87.6185C363.988 87.5359 363.813 87.4132 363.67 87.2582C363.527 87.1033 363.418 86.9197 363.35 86.7195C363.283 86.5193 363.258 86.3071 363.279 86.0968L363.649 81.3076C363.693 80.8629 363.899 80.4499 364.227 80.1474C364.555 79.8448 364.983 79.674 365.429 79.6673H413.207C413.417 79.6628 413.626 79.7031 413.819 79.7858C414.013 79.8684 414.186 79.9914 414.329 80.1466C414.471 80.3018 414.579 80.4856 414.645 80.6858C414.711 80.886 414.734 81.098 414.712 81.3076L414.341 86.0968C414.3 86.5405 414.097 86.9534 413.771 87.2561C413.444 87.5588 413.018 87.7301 412.574 87.737Z" fill="#15EBEB"/>
<path d="M453.029 132.899H319.251L320.386 118.268H454.164L453.029 132.899Z" fill="#15EBEB"/>
<path d="M398.885 153.264H309.828L310.126 149.493H399.184L398.885 153.264Z" fill="#15EBEB"/>
<path d="M398.049 164.161H308.992L309.278 160.377H398.336L398.049 164.161Z" fill="#15EBEB"/>
<path d="M397.201 175.056H308.143L308.43 171.272H397.488L397.201 175.056Z" fill="#15EBEB"/>
<path d="M396.353 185.938H307.295L307.582 182.167H396.64L396.353 185.938Z" fill="#15EBEB"/>
<path d="M454.785 185.938H418.45L421.293 149.493H457.628L454.785 185.938Z" fill="#15EBEB"/>
<path d="M444.728 163.024C444.895 160.893 443.247 159.432 440.261 159.432C439.102 159.377 437.945 159.585 436.878 160.041C435.811 160.497 434.86 161.189 434.098 162.066L431.804 160.33C432.918 159.084 434.294 158.103 435.833 157.457C437.373 156.81 439.036 156.516 440.703 156.594C445.481 156.594 448.419 158.833 448.12 162.581C447.69 168.148 441.778 168.567 441.443 172.889H438.111C438.529 167.621 444.429 166.855 444.728 163.024ZM437.227 178.265C437.27 177.668 437.544 177.111 437.99 176.713C438.436 176.316 439.019 176.108 439.616 176.134C439.891 176.123 440.164 176.173 440.418 176.278C440.672 176.384 440.9 176.544 441.086 176.746C441.272 176.949 441.412 177.19 441.497 177.452C441.581 177.714 441.608 177.992 441.575 178.265C441.53 178.844 441.269 179.385 440.844 179.78C440.419 180.175 439.861 180.395 439.281 180.396C439 180.417 438.718 180.376 438.454 180.275C438.19 180.175 437.952 180.017 437.756 179.814C437.56 179.61 437.411 179.366 437.319 179.099C437.228 178.831 437.196 178.546 437.227 178.265Z" fill="white"/>
<path d="M394.597 208.423H305.539L305.837 204.64H394.895L394.597 208.423Z" fill="#15EBEB"/>
<path d="M393.749 219.308H304.691L304.99 215.537H394.048L393.749 219.308Z" fill="#15EBEB"/>
<path d="M392.912 230.202H303.854L304.141 226.43H393.199L392.912 230.202Z" fill="#15EBEB"/>
<path d="M392.065 241.098H303.007L303.293 237.315H392.351L392.065 241.098Z" fill="#15EBEB"/>
<path d="M450.498 241.097H414.163L416.993 204.64H453.328L450.498 241.097Z" fill="#15EBEB"/>
<path d="M440.439 218.182C440.607 216.039 438.958 214.59 435.972 214.59C434.813 214.535 433.657 214.743 432.589 215.199C431.522 215.655 430.572 216.347 429.809 217.224L427.516 215.512C428.628 214.264 430.004 213.281 431.543 212.635C433.083 211.989 434.747 211.695 436.414 211.776C441.192 211.776 444.13 214.015 443.832 217.763C443.402 223.33 437.489 223.749 437.155 228.071H433.822C434.228 222.696 440.141 222.013 440.439 218.182ZM432.938 233.471C432.978 232.883 433.242 232.332 433.676 231.933C434.109 231.534 434.679 231.317 435.268 231.328C435.543 231.317 435.818 231.367 436.073 231.473C436.328 231.579 436.556 231.74 436.743 231.944C436.929 232.148 437.069 232.391 437.153 232.654C437.236 232.918 437.261 233.197 437.226 233.471C437.179 234.049 436.917 234.589 436.493 234.983C436.068 235.377 435.512 235.598 434.933 235.602C434.657 235.614 434.381 235.566 434.124 235.461C433.868 235.357 433.637 235.198 433.448 234.995C433.259 234.793 433.115 234.552 433.027 234.289C432.939 234.026 432.909 233.747 432.938 233.471Z" fill="white"/>
<path d="M390.309 263.571H301.251L301.55 259.8H390.608L390.309 263.571Z" fill="#15EBEB"/>
<path d="M389.46 274.466H300.403L300.701 270.683H389.759L389.46 274.466Z" fill="#15EBEB"/>
<path d="M388.613 285.364H299.567L299.853 281.58H388.911L388.613 285.364Z" fill="#15EBEB"/>
<path d="M387.776 296.245H298.718L299.005 292.474H388.063L387.776 296.245Z" fill="#15EBEB"/>
<path d="M446.209 296.245H409.874L412.705 259.8H449.04L446.209 296.245Z" fill="#15EBEB"/>
<path d="M436.152 273.329C436.319 271.198 434.671 269.738 431.673 269.738C430.516 269.683 429.361 269.892 428.296 270.348C427.231 270.804 426.282 271.496 425.521 272.372L423.228 270.588C424.34 269.34 425.716 268.357 427.256 267.711C428.795 267.064 430.459 266.771 432.127 266.852C436.904 266.852 439.831 269.079 439.544 272.779C439.114 278.358 433.202 278.765 432.867 283.087H429.582C429.941 277.903 435.853 277.161 436.152 273.329ZM428.651 288.547C428.693 287.96 428.959 287.413 429.392 287.016C429.825 286.62 430.393 286.405 430.98 286.416C431.255 286.405 431.528 286.454 431.782 286.56C432.036 286.666 432.264 286.825 432.45 287.028C432.636 287.231 432.777 287.471 432.861 287.734C432.945 287.996 432.972 288.273 432.939 288.547C432.894 289.126 432.633 289.667 432.208 290.062C431.783 290.457 431.225 290.677 430.645 290.678C430.368 290.692 430.092 290.645 429.834 290.541C429.577 290.437 429.345 290.278 429.156 290.076C428.966 289.873 428.822 289.631 428.735 289.367C428.648 289.103 428.619 288.823 428.651 288.547Z" fill="white"/>
<path d="M386.021 318.732H296.963L297.261 314.948H386.319L386.021 318.732Z" fill="#15EBEB"/>
<path d="M385.173 329.626H296.115L296.414 325.843H385.471L385.173 329.626Z" fill="#15EBEB"/>
<path d="M384.325 340.509H295.267L295.566 336.737H384.624L384.325 340.509Z" fill="#15EBEB"/>
<path d="M383.477 351.406H294.419L294.717 347.622H383.775L383.477 351.406Z" fill="#15EBEB"/>
<path d="M441.921 351.406H405.586L408.417 314.948H444.752L441.921 351.406Z" fill="#15EBEB"/>
<path d="M431.864 328.49C432.031 326.346 430.383 324.898 427.385 324.898C426.228 324.842 425.073 325.051 424.008 325.507C422.942 325.963 421.994 326.655 421.234 327.532L418.94 325.796C420.052 324.548 421.428 323.565 422.968 322.919C424.508 322.272 426.172 321.979 427.839 322.06C432.617 322.06 435.543 324.299 435.256 328.047C434.826 333.614 428.914 334.033 428.579 338.355H425.247C425.653 333.051 431.566 332.321 431.864 328.49ZM424.363 343.731C424.403 343.142 424.667 342.592 425.1 342.193C425.534 341.794 426.104 341.577 426.692 341.588C426.968 341.577 427.243 341.626 427.498 341.733C427.752 341.839 427.981 342 428.168 342.204C428.354 342.408 428.494 342.65 428.577 342.914C428.661 343.178 428.686 343.457 428.651 343.731C428.603 344.309 428.342 344.848 427.917 345.243C427.493 345.637 426.937 345.858 426.358 345.862C426.081 345.874 425.805 345.826 425.549 345.721C425.293 345.617 425.062 345.458 424.873 345.255C424.683 345.053 424.54 344.812 424.452 344.549C424.364 344.286 424.334 344.007 424.363 343.731Z" fill="white"/>
<path opacity="0.7" d="M453.029 132.899H319.251L320.386 118.268H454.164L453.029 132.899Z" fill="white"/>
<path opacity="0.7" d="M398.885 153.264H309.828L310.126 149.493H399.184L398.885 153.264Z" fill="white"/>
<path opacity="0.7" d="M398.049 164.161H308.992L309.278 160.377H398.336L398.049 164.161Z" fill="white"/>
<path opacity="0.7" d="M397.201 175.056H308.143L308.43 171.272H397.488L397.201 175.056Z" fill="white"/>
<path opacity="0.7" d="M396.353 185.938H307.295L307.582 182.167H396.64L396.353 185.938Z" fill="white"/>
<path opacity="0.7" d="M454.785 185.938H418.45L421.293 149.493H457.628L454.785 185.938Z" fill="white"/>
<path opacity="0.7" d="M394.597 208.423H305.539L305.837 204.64H394.895L394.597 208.423Z" fill="white"/>
<path opacity="0.7" d="M393.749 219.308H304.691L304.99 215.537H394.048L393.749 219.308Z" fill="white"/>
<path opacity="0.7" d="M392.912 230.202H303.854L304.141 226.43H393.199L392.912 230.202Z" fill="white"/>
<path opacity="0.7" d="M392.065 241.098H303.007L303.293 237.315H392.351L392.065 241.098Z" fill="white"/>
<path opacity="0.7" d="M450.498 241.097H414.163L416.993 204.64H453.328L450.498 241.097Z" fill="white"/>
<path opacity="0.7" d="M390.309 263.571H301.251L301.55 259.8H390.608L390.309 263.571Z" fill="white"/>
<path opacity="0.7" d="M389.46 274.466H300.403L300.701 270.683H389.759L389.46 274.466Z" fill="white"/>
<path opacity="0.7" d="M388.613 285.364H299.567L299.853 281.58H388.911L388.613 285.364Z" fill="white"/>
<path opacity="0.7" d="M387.776 296.245H298.718L299.005 292.474H388.063L387.776 296.245Z" fill="white"/>
<path opacity="0.7" d="M446.209 296.245H409.874L412.705 259.8H449.04L446.209 296.245Z" fill="white"/>
<path opacity="0.7" d="M386.021 318.732H296.963L297.261 314.948H386.319L386.021 318.732Z" fill="white"/>
<path opacity="0.7" d="M385.173 329.626H296.115L296.414 325.843H385.471L385.173 329.626Z" fill="white"/>
<path opacity="0.7" d="M384.325 340.509H295.267L295.566 336.737H384.624L384.325 340.509Z" fill="white"/>
<path opacity="0.7" d="M383.477 351.406H294.419L294.717 347.622H383.775L383.477 351.406Z" fill="white"/>
<path opacity="0.7" d="M441.921 351.406H405.586L408.417 314.948H444.752L441.921 351.406Z" fill="white"/>
<path d="M239.665 241.852V274.825C239.674 281.327 237.169 287.579 232.678 292.27L201.98 324.465H219.359L251.251 293C253.63 290.656 255.52 287.86 256.812 284.777C258.104 281.694 258.771 278.385 258.776 275.041V241.852H239.665Z" fill="#15EBEB"/>
<path opacity="0.4" d="M258.776 241.852V275.005C258.781 276.862 258.573 278.714 258.155 280.524C257.11 285.266 254.711 289.601 251.251 293L219.359 324.465H201.98L232.678 292.27C237.169 287.579 239.674 281.327 239.665 274.825V241.852H258.776Z" fill="white"/>
<path opacity="0.2" d="M258.776 241.852V275.005C258.781 276.862 258.573 278.714 258.155 280.524L239.665 273.041V241.852H258.776Z" fill="black"/>
<path d="M189.904 328.056L164.176 426.305C163.946 427.199 163.425 427.992 162.696 428.557C161.968 429.123 161.072 429.43 160.151 429.43H114.176C113.798 429.428 113.424 429.34 113.085 429.172C112.745 429.004 112.449 428.761 112.218 428.46C111.986 428.16 111.826 427.811 111.751 427.439C111.677 427.067 111.689 426.683 111.788 426.317L137.528 328.056H132.583L107.165 425.096C106.887 426.171 106.857 427.296 107.078 428.385C107.3 429.473 107.767 430.497 108.443 431.377C109.12 432.257 109.988 432.971 110.982 433.464C111.975 433.956 113.068 434.214 114.176 434.219H160.151C162.127 434.218 164.048 433.56 165.612 432.349C167.177 431.139 168.297 429.442 168.798 427.526L194.837 328.056H189.904Z" fill="#15EBEB"/>
<g opacity="0.4">
<path opacity="0.4" d="M189.904 328.056L164.176 426.305C163.946 427.199 163.425 427.992 162.696 428.557C161.968 429.123 161.072 429.43 160.151 429.43H114.176C113.798 429.428 113.424 429.34 113.085 429.172C112.745 429.004 112.449 428.761 112.218 428.46C111.986 428.16 111.826 427.811 111.751 427.439C111.677 427.067 111.689 426.683 111.788 426.317L137.528 328.056H132.583L107.165 425.096C106.887 426.171 106.857 427.296 107.078 428.385C107.3 429.473 107.767 430.497 108.443 431.377C109.12 432.257 109.988 432.971 110.982 433.464C111.975 433.956 113.068 434.214 114.176 434.219H160.151C162.127 434.218 164.048 433.56 165.612 432.349C167.177 431.139 168.297 429.442 168.798 427.526L194.837 328.056H189.904Z" fill="white"/>
</g>
<path d="M200.428 434.219L172.299 326.703L167.676 327.912L195.483 434.219H200.428Z" fill="#15EBEB"/>
<path d="M257.761 434.219L229.632 326.703L225.01 327.912L252.816 434.219H257.761Z" fill="#15EBEB"/>
<g opacity="0.5">
<path opacity="0.5" d="M200.428 434.219L172.299 326.703L167.676 327.912L195.483 434.219H200.428Z" fill="white"/>
</g>
<g opacity="0.5">
<path opacity="0.5" d="M257.761 434.219L229.632 326.703L225.01 327.912L252.816 434.219H257.761Z" fill="white"/>
</g>
<path opacity="0.2" d="M132.584 328.056H137.529L133.647 342.866L129.072 341.465L132.584 328.056Z" fill="black"/>
<path opacity="0.2" d="M172.299 326.703L178.689 351.14L173.326 349.511L167.676 327.912L172.299 326.703Z" fill="black"/>
<path opacity="0.2" d="M189.904 328.056H194.837L186.739 359.065L182.152 357.665L189.904 328.056Z" fill="black"/>
<path opacity="0.2" d="M240.92 370.141L235.533 368.489L225.01 328.213L229.632 326.896L240.92 370.141Z" fill="black"/>
<path d="M128.224 329.697L105.888 208.496L105.589 206.664C105.368 205.532 105.398 204.365 105.677 203.246C105.956 202.127 106.476 201.082 107.201 200.187C107.902 199.346 108.782 198.673 109.776 198.217C110.77 197.761 111.854 197.534 112.947 197.553H161.298C163.593 197.666 165.785 198.542 167.528 200.042C169.271 201.542 170.466 203.581 170.925 205.838L171.284 207.885L193.608 328.811L188.902 329.673L166.506 208.388L166.219 206.688C165.97 205.531 165.358 204.485 164.473 203.703C163.587 202.92 162.474 202.443 161.298 202.342H112.899C112.507 202.327 112.116 202.401 111.756 202.558C111.396 202.716 111.076 202.953 110.821 203.252C110.542 203.617 110.346 204.038 110.247 204.487C110.148 204.936 110.148 205.401 110.247 205.85L110.582 207.861L132.93 328.787L128.224 329.697Z" fill="#15EBEB"/>
<g opacity="0.5">
<path opacity="0.5" d="M128.224 329.697L105.888 208.496L105.589 206.664C105.368 205.532 105.398 204.365 105.677 203.246C105.956 202.127 106.476 201.082 107.201 200.187C107.902 199.346 108.782 198.673 109.776 198.217C110.77 197.761 111.854 197.534 112.947 197.553H161.298C163.593 197.666 165.785 198.542 167.528 200.042C169.271 201.542 170.466 203.581 170.925 205.838L171.284 207.885L193.608 328.811L188.902 329.673L166.506 208.388L166.219 206.688C165.97 205.531 165.358 204.485 164.473 203.703C163.587 202.92 162.474 202.443 161.298 202.342H112.899C112.507 202.327 112.116 202.401 111.756 202.558C111.396 202.716 111.076 202.953 110.821 203.252C110.542 203.617 110.346 204.038 110.247 204.487C110.148 204.936 110.148 205.401 110.247 205.85L110.582 207.861L132.93 328.787L128.224 329.697Z" fill="white"/>
</g>
<path d="M137.995 317.675H229.883C231.467 317.675 232.986 318.306 234.106 319.428C235.226 320.551 235.856 322.074 235.856 323.661V331.647H132.022V323.637C132.029 322.054 132.661 320.537 133.78 319.42C134.899 318.302 136.415 317.675 137.995 317.675Z" fill="#15EBEB"/>
<path d="M237.289 324.68H130.589C129.263 324.68 128.188 325.757 128.188 327.086V329.265C128.188 330.594 129.263 331.672 130.589 331.672H237.289C238.614 331.672 239.689 330.594 239.689 329.265V327.086C239.689 325.757 238.614 324.68 237.289 324.68Z" fill="#15EBEB"/>
<path opacity="0.6" d="M237.289 324.68H130.589C129.263 324.68 128.188 325.757 128.188 327.086V329.265C128.188 330.594 129.263 331.672 130.589 331.672H237.289C238.614 331.672 239.689 330.594 239.689 329.265V327.086C239.689 325.757 238.614 324.68 237.289 324.68Z" fill="white"/>
<path d="M177.948 257.416H117.235L108.181 208.328H168.882L177.865 256.961L177.948 257.416Z" fill="#15EBEB"/>
<path d="M237.671 152.809C237.671 152.809 230.038 135.041 229.381 133.138C228.724 131.234 229.501 121.62 228.915 119.968C228.33 118.315 219.467 117.13 217.592 117.346C215.717 117.561 217.365 132.431 218.141 133.605C219.154 134.812 220.295 135.904 221.546 136.861L228.294 157.215L237.671 152.809Z" fill="#B97964"/>
<path d="M199.055 186.345C204.262 187.171 225.583 190.26 230.349 187.075C234.195 184.501 223.362 142.775 223.362 142.775L233.001 138.836C233.001 138.836 255.898 189.386 243.667 200.928C237.456 206.794 219.993 208.279 194.874 208.279L199.055 186.345Z" fill="#15EBEB"/>
<path opacity="0.8" d="M199.055 186.345C204.262 187.171 225.583 190.26 230.349 187.075C234.195 184.501 223.362 142.775 223.362 142.775L233.001 138.836C233.001 138.836 255.898 189.386 243.667 200.928C237.456 206.794 219.993 208.279 194.874 208.279L199.055 186.345Z" fill="white"/>
<path opacity="0.1" d="M207.883 208.159C204.18 208.267 200.226 208.315 196.07 208.315L199.653 194.558C203.535 198.293 206.373 202.982 207.883 208.159Z" fill="black"/>
<path d="M229.118 215.5L254.392 242.296" stroke="#2E353A" stroke-width="2" stroke-miterlimit="10"/>
<path d="M210.999 231.28C210.999 231.28 230.289 230.681 232.296 230.477C234.302 230.274 242.652 225.485 244.443 225.293C246.235 225.102 251.013 232.668 251.61 234.464C252.207 236.26 238.077 241.049 236.679 240.858C235.161 240.442 233.691 239.864 232.296 239.134L210.999 241.648V231.28Z" fill="#B97964"/>
<path d="M199.652 424.832L209.172 423.527L210.485 400.851L200.99 402.168L199.652 424.832Z" fill="#B97964"/>
<path d="M209.889 422.379L199.139 421.696C198.959 421.683 198.781 421.738 198.641 421.852C198.501 421.965 198.41 422.128 198.386 422.307L197.335 430.808C197.305 431.254 197.454 431.693 197.747 432.03C198.04 432.367 198.455 432.573 198.9 432.604C202.65 432.783 204.454 432.676 209.184 432.939C212.098 433.107 217.82 433.729 221.821 433.334C225.822 432.939 225.333 428.988 223.613 428.796C219.504 428.329 214.057 425.312 211.501 423.013C211.049 422.629 210.481 422.405 209.889 422.379Z" fill="#2E353A"/>
<path d="M213.184 424.222C212.325 424.144 211.476 423.976 210.652 423.719C210.61 423.708 210.572 423.685 210.542 423.654C210.513 423.622 210.493 423.582 210.485 423.539C210.482 423.495 210.491 423.452 210.51 423.412C210.529 423.372 210.557 423.338 210.592 423.312C210.915 423.12 213.746 421.432 214.892 421.959C215.021 422.021 215.131 422.116 215.212 422.233C215.294 422.351 215.344 422.487 215.358 422.629C215.416 422.842 215.414 423.066 215.353 423.277C215.292 423.488 215.174 423.678 215.012 423.827C214.473 424.183 213.821 424.324 213.184 424.222ZM214.701 422.414C214.092 422.126 212.444 422.833 211.285 423.467C212.981 423.91 214.235 423.934 214.725 423.527C214.823 423.424 214.894 423.297 214.929 423.159C214.965 423.02 214.964 422.875 214.928 422.737C214.923 422.668 214.899 422.601 214.86 422.544C214.82 422.487 214.765 422.442 214.701 422.414Z" fill="#15EBEB"/>
<path d="M210.7 423.718C210.669 423.729 210.636 423.729 210.605 423.718C210.544 423.675 210.502 423.611 210.485 423.539C210.485 423.455 210.485 420.641 211.465 419.767C211.6 419.656 211.757 419.576 211.927 419.533C212.096 419.489 212.273 419.483 212.444 419.516C212.634 419.532 212.812 419.612 212.95 419.742C213.089 419.873 213.18 420.046 213.209 420.234C213.364 421.3 211.811 423.215 210.82 423.718C210.801 423.727 210.781 423.731 210.76 423.731C210.74 423.731 210.719 423.727 210.7 423.718ZM212.253 419.983C212.164 419.976 212.073 419.989 211.989 420.02C211.905 420.051 211.828 420.099 211.763 420.162C211.142 420.677 210.987 422.258 210.951 423.156C211.878 422.476 212.524 421.479 212.767 420.354C212.767 420.222 212.683 420.055 212.361 419.995L212.253 419.983Z" fill="#15EBEB"/>
<path opacity="0.2" d="M200.99 402.166L210.485 400.861L209.733 413.816L200.249 414.654L200.99 402.166Z" fill="black"/>
<path d="M200.034 291.55L197.716 276.967L144.372 273.771C144.372 273.771 138.699 304.11 143.059 312.191C150.834 326.619 192.771 319.375 205.038 320.752C197.704 350.816 198.421 409.567 198.421 409.567L215.944 410.908C215.944 410.908 229.429 347.607 232.152 317.519C233.992 297.225 217.21 297.728 200.034 291.55Z" fill="#2E353A"/>
<path d="M196.367 410.393L217.426 411.782L219.229 402.743L196.093 401.665L196.367 410.393Z" fill="#15EBEB"/>
<path d="M221.605 416.366L231.185 417.072L237.181 395.174L227.614 394.479L221.605 416.366Z" fill="#B97964"/>
<path d="M232.128 416.093L221.748 413.196C221.577 413.139 221.391 413.152 221.23 413.233C221.068 413.314 220.946 413.456 220.888 413.627L218.093 421.721C218.034 421.937 218.017 422.163 218.045 422.385C218.073 422.608 218.144 422.823 218.255 423.017C218.366 423.212 218.515 423.383 218.692 423.52C218.869 423.657 219.072 423.758 219.288 423.816C222.871 424.762 224.699 425.013 229.273 426.282C232.08 427.06 237.551 428.856 241.552 429.311C245.554 429.766 245.888 425.791 244.24 425.253C240.322 423.936 235.64 419.841 233.597 417.063C233.231 416.582 232.713 416.24 232.128 416.093Z" fill="#2E353A"/>
<path d="M234.972 418.596C234.139 418.345 233.337 418 232.583 417.566C232.543 417.551 232.51 417.522 232.488 417.485C232.466 417.448 232.458 417.405 232.463 417.363C232.466 417.319 232.481 417.277 232.506 417.241C232.532 417.205 232.566 417.177 232.607 417.159C232.953 417.039 236.082 415.962 237.086 416.74C237.202 416.826 237.293 416.941 237.352 417.073C237.411 417.205 237.434 417.35 237.42 417.494C237.435 417.721 237.386 417.946 237.278 418.146C237.17 418.345 237.008 418.509 236.811 418.62C236.216 418.842 235.56 418.833 234.972 418.596ZM236.823 417.135C236.285 416.728 234.53 417.135 233.24 417.458C234.804 418.249 236.035 418.536 236.584 418.237C236.704 418.158 236.801 418.049 236.866 417.921C236.931 417.793 236.961 417.65 236.954 417.506C236.967 417.436 236.959 417.364 236.931 417.298C236.904 417.232 236.858 417.176 236.799 417.135H236.823Z" fill="#15EBEB"/>
<path d="M232.641 417.589H232.498C232.47 417.564 232.449 417.532 232.436 417.497C232.424 417.461 232.42 417.423 232.426 417.386C232.426 417.302 232.988 414.548 234.158 413.902C234.315 413.829 234.487 413.791 234.66 413.791C234.833 413.791 235.004 413.829 235.162 413.902C235.345 413.96 235.504 414.077 235.614 414.235C235.725 414.393 235.78 414.583 235.771 414.776C235.687 415.841 233.776 417.398 232.701 417.685C232.671 417.661 232.649 417.627 232.641 417.589ZM234.887 414.261C234.801 414.237 234.711 414.23 234.622 414.243C234.534 414.255 234.449 414.286 234.373 414.333C233.657 414.716 233.179 416.224 232.952 417.099C233.931 416.644 235.221 415.434 235.341 414.704C235.341 414.572 235.341 414.405 235.018 414.285L234.887 414.261Z" fill="#15EBEB"/>
<path opacity="0.2" d="M227.613 394.479L237.181 395.186L233.752 407.698L224.292 406.536L227.613 394.479Z" fill="black"/>
<path d="M240.43 406.155L223.564 401.186C223.564 401.186 233.693 344.219 243.846 324.464C243.082 324.213 242.066 323.889 240.812 323.518C238.555 322.836 235.557 321.986 232.033 321.004C207.523 314.191 157.846 301.416 157.846 301.416L180.54 280.188C180.54 280.188 270.936 294.005 272.811 317.879C273.707 329.361 240.43 406.155 240.43 406.155Z" fill="#2E353A"/>
<path d="M221.39 401.558L241.696 407.317L245.339 398.853L222.931 392.962L221.39 401.558Z" fill="#15EBEB"/>
<path opacity="0.2" d="M240.86 323.518C238.602 322.835 235.604 321.985 232.081 321.003C232.785 315.208 232.797 308.564 230.014 305.175C224.484 298.422 210.258 294.459 202.16 293.023C195.387 291.825 172.633 289.431 172.633 289.431C172.633 289.431 202.16 286.593 232.355 295.417C247.214 299.799 244.312 314.418 240.86 323.518Z" fill="black"/>
<path d="M199.054 186.345C199.054 186.345 206.794 215.079 197.752 276.967C180.898 276.608 152.578 275.949 144.372 275.77C144.169 267.149 150.511 224.909 143.094 184.166C148.435 183.242 153.836 182.706 159.255 182.561C167.185 182.278 175.125 182.449 183.036 183.076C188.451 183.751 193.806 184.844 199.054 186.345Z" fill="#15EBEB"/>
<path opacity="0.7" d="M199.054 186.345C199.054 186.345 206.794 215.079 197.752 276.967C180.898 276.608 152.578 275.949 144.372 275.77C144.169 267.149 150.511 224.909 143.094 184.166C148.435 183.242 153.836 182.706 159.255 182.561C167.185 182.278 175.125 182.449 183.036 183.076C188.451 183.751 193.806 184.844 199.054 186.345Z" fill="white"/>
<path opacity="0.1" d="M161.824 236.667C157.046 235.614 151.348 231.004 146.654 226.454C146.654 218.361 146.26 209.752 145.388 200.976C152.029 210.83 170.018 238.475 161.824 236.667Z" fill="black"/>
<path d="M143.059 184.166C124.796 190.763 156.855 240.33 166.804 245.443C176.754 250.555 227.327 239.851 227.327 239.851L225.332 229.603C225.332 229.603 180.588 230.74 176.467 229.698C172.347 228.657 162.552 207.525 156.914 197.551C153.78 191.766 148.942 187.092 143.059 184.166Z" fill="#15EBEB"/>
<path opacity="0.8" d="M143.059 184.166C124.796 190.763 156.855 240.33 166.804 245.443C176.754 250.555 227.327 239.851 227.327 239.851L225.332 229.603C225.332 229.603 180.588 230.74 176.467 229.698C172.347 228.657 162.552 207.525 156.914 197.551C153.78 191.766 148.942 187.092 143.059 184.166Z" fill="white"/>
<path d="M221.749 228.681L224.341 242.294L229.118 240.654L227.327 228.681H221.749Z" fill="#15EBEB"/>
<path opacity="0.7" d="M221.749 228.681L224.341 242.294L229.118 240.654L227.327 228.681H221.749Z" fill="white"/>
<path d="M223.039 145.805L235.892 140.705L233.395 136.311L221.988 140.309L223.039 145.805Z" fill="#15EBEB"/>
<path opacity="0.7" d="M223.039 145.805L235.892 140.705L233.395 136.311L221.988 140.309L223.039 145.805Z" fill="white"/>
<path opacity="0.1" d="M156.342 182.681C156.342 182.681 156.688 188.273 167.641 193.66L175.214 188.165C175.214 188.165 177.376 202.197 178.797 212.673C178.797 212.673 178.702 195.911 177.268 189.47L183.061 191.529C183.061 191.529 178.128 183.041 169.731 181.089C161.334 179.137 156.342 182.681 156.342 182.681Z" fill="black"/>
<path d="M162.147 155.838C163.485 163.537 164.679 177.617 159.221 182.622L175.166 187.076L182.954 183.136C174.462 180.91 174.82 174.564 176.433 168.637L162.147 155.838Z" fill="#B97964"/>
<path opacity="0.2" d="M167.999 161.058L176.48 168.636C176.087 170.015 175.811 171.425 175.655 172.851C172.407 172.312 168.011 168.624 167.736 165.2C167.567 163.815 167.656 162.41 167.999 161.058Z" fill="black"/>
<path d="M173.457 134.443C169.981 138.227 172.979 142.549 184.076 147.805C186.715 141.974 185.103 132.24 181.52 130.54C177.936 128.84 176.491 131.163 173.457 134.443Z" fill="#2E353A"/>
<path d="M157.487 146.343C160.306 156.364 161.453 162.362 167.688 166.469C177.076 172.635 188.579 165.272 188.806 154.604C188.997 145.026 184.362 130.239 173.577 128.359C171.203 127.934 168.76 128.124 166.48 128.91C164.199 129.696 162.157 131.052 160.545 132.85C158.934 134.649 157.808 136.83 157.273 139.187C156.737 141.544 156.811 143.999 157.487 146.319V146.343Z" fill="#B97964"/>
<path d="M173.218 145.84C173.398 146.666 173.983 147.241 174.52 147.121C175.058 147.001 175.345 146.247 175.165 145.421C174.986 144.595 174.413 144.02 173.875 144.128C173.338 144.235 173.099 145.014 173.218 145.84Z" fill="#2E353A"/>
<path d="M182.595 143.817C182.774 144.644 183.36 145.218 183.897 145.099C184.435 144.979 184.733 144.225 184.554 143.386C184.375 142.548 183.79 141.986 183.252 142.105C182.715 142.225 182.416 142.991 182.595 143.817Z" fill="#2E353A"/>
<path d="M179.621 144.871C181.147 147.188 182.989 149.279 185.092 151.085C184.614 151.611 184.028 152.025 183.374 152.3C182.72 152.575 182.014 152.704 181.305 152.677L179.621 144.871Z" fill="#A24E3F"/>
<path d="M170.017 143.435C169.928 143.468 169.831 143.474 169.739 143.45C169.647 143.427 169.565 143.376 169.503 143.305C169.44 143.233 169.401 143.144 169.391 143.05C169.38 142.956 169.398 142.86 169.443 142.777C169.756 142.052 170.238 141.413 170.85 140.915C171.461 140.417 172.183 140.074 172.955 139.915C173.08 139.894 173.208 139.922 173.313 139.993C173.417 140.065 173.49 140.174 173.516 140.298C173.531 140.428 173.495 140.558 173.418 140.662C173.34 140.766 173.226 140.838 173.098 140.861C172.492 140.996 171.926 141.274 171.449 141.671C170.971 142.069 170.595 142.575 170.351 143.148C170.322 143.219 170.277 143.282 170.219 143.332C170.161 143.382 170.091 143.418 170.017 143.435Z" fill="#2E353A"/>
<path d="M186.178 139.723C186.086 139.747 185.989 139.742 185.9 139.71C185.811 139.678 185.733 139.62 185.677 139.544C185.306 139.043 184.823 138.638 184.267 138.359C183.711 138.08 183.097 137.936 182.475 137.939C182.344 137.949 182.214 137.907 182.114 137.822C182.013 137.737 181.95 137.616 181.938 137.484C181.931 137.355 181.972 137.228 182.054 137.128C182.136 137.029 182.252 136.963 182.38 136.946C183.168 136.928 183.948 137.099 184.657 137.444C185.365 137.79 185.981 138.3 186.453 138.933C186.493 138.984 186.523 139.042 186.541 139.105C186.559 139.168 186.564 139.233 186.556 139.298C186.548 139.362 186.528 139.425 186.496 139.481C186.464 139.538 186.421 139.588 186.369 139.627C186.315 139.675 186.249 139.708 186.178 139.723Z" fill="#2E353A"/>
<path d="M159.638 136.491C164.727 137.09 165.252 142.334 160.236 153.552C154.442 150.847 149.342 142.394 150.979 138.778C152.615 135.162 155.135 135.952 159.638 136.491Z" fill="#2E353A"/>
<path d="M154.418 155.515C155.03 156.659 155.861 157.67 156.863 158.492C157.865 159.314 159.019 159.929 160.259 160.304C163.579 161.274 165.276 158.304 164.392 155.144C163.591 152.294 160.892 148.355 157.547 148.774C154.203 149.193 152.913 152.677 154.418 155.515Z" fill="#B97964"/>
<path d="M151.373 137.915C151.373 137.915 148.853 134.658 153.762 128.145C158.671 121.631 170.663 119.632 179.86 121.428C189.058 123.224 183.587 133.401 180.302 135.089L180.708 133.497C177.193 135.335 173.322 136.389 169.361 136.586L171.177 134.897C171.177 134.897 156.748 138.645 151.373 137.915Z" fill="#2E353A"/>
<path d="M180.696 155.432C180.488 156.663 180.372 157.907 180.35 159.155L179.705 159.251C176.743 159.646 175.25 158.844 174.485 157.85C174.122 157.351 173.881 156.772 173.781 156.162C173.731 155.817 173.731 155.466 173.781 155.121C175.717 155.694 177.754 155.841 179.753 155.552C180.302 155.504 180.696 155.432 180.696 155.432Z" fill="#2E353A"/>
<path d="M179.681 155.552L179.55 156.653C176.779 157.012 174.772 156.893 173.781 156.162C173.731 155.817 173.731 155.466 173.781 155.121C175.694 155.684 177.706 155.831 179.681 155.552Z" fill="white"/>
<path d="M179.706 159.238C176.744 159.633 175.25 158.831 174.486 157.837C175.609 157.709 176.745 157.782 177.842 158.052C178.572 158.241 179.225 158.656 179.706 159.238Z" fill="#A24E3F"/>
<path d="M162.026 177.892C162.026 177.892 170.65 184.381 175.165 185.878C175.165 185.878 177.291 181.879 176.419 178.574L182.953 183.136C183.687 185.881 183.687 188.772 182.953 191.517L175.165 187.075L167.807 192.463C167.807 192.463 156.926 189.302 156.293 182.681L162.026 177.892Z" fill="#15EBEB"/>
<path opacity="0.8" d="M162.026 177.892C162.026 177.892 170.65 184.381 175.165 185.878C175.165 185.878 177.291 181.879 176.419 178.574L182.953 183.136C183.687 185.881 183.687 188.772 182.953 191.517L175.165 187.075L167.807 192.463C167.807 192.463 156.926 189.302 156.293 182.681L162.026 177.892Z" fill="white"/>
<path d="M304.368 239.301H185.317C184.545 239.301 183.92 239.928 183.92 240.702V244.21C183.92 244.984 184.545 245.611 185.317 245.611H304.368C305.139 245.611 305.765 244.984 305.765 244.21V240.702C305.765 239.928 305.139 239.301 304.368 239.301Z" fill="#15EBEB"/>
<path opacity="0.5" d="M305.36 240.535V244.043C305.36 244.821 305.145 245.443 304.38 245.443H185.318C184.541 245.443 183.526 244.821 183.526 244.043V240.535C183.526 239.768 184.541 239.457 185.318 239.457H304.38C305.145 239.457 305.36 239.768 305.36 240.535Z" fill="white"/>
<path opacity="0.2" d="M233.693 240.535V244.043C233.693 244.821 233.43 245.443 232.666 245.443H185.318C184.541 245.443 183.526 244.821 183.526 244.043V240.535C183.526 239.768 184.541 239.457 185.318 239.457H232.666C233.43 239.457 233.693 239.768 233.693 240.535Z" fill="black"/>
<path d="M206.651 64.8098C205.622 61.0714 203.663 57.6561 200.957 54.8841C198.252 52.1121 194.888 50.0742 191.182 48.9613C187.476 47.8484 183.548 47.6971 179.768 48.5214C175.987 49.3458 172.477 51.1189 169.567 53.6745C166.657 56.2301 164.442 59.4845 163.13 63.1326C161.817 66.7808 161.451 70.7033 162.064 74.5324C162.677 78.3615 164.25 81.9718 166.636 85.0249C169.021 88.078 172.141 90.474 175.703 91.9882C177.234 92.6176 178.468 93.8077 179.155 95.3166L179.932 97.0766L201.921 91.0902L201.694 89.1745C201.536 87.5139 202 85.8536 202.996 84.5171C205.046 81.7197 206.439 78.4946 207.072 75.0824C207.705 71.6701 207.561 68.1586 206.651 64.8098Z" fill="#15EBEB"/>
<path d="M187.111 97.1227C187.111 97.1227 183.802 86.7183 177.961 82.1088L181.198 81.2228L181.449 76.2301L186.74 83.9047L186.31 74.5659L191.53 83.0786L192.056 78.2894L196.678 77.0921C194.149 82.7858 193.697 89.1891 195.4 95.1831" stroke="white" stroke-linecap="round" stroke-linejoin="round"/>
<path d="M191.267 95.3749C187.373 96.4405 185.199 100.93 186.417 105.396C187.635 109.862 191.768 112.58 195.662 111.55C199.556 110.521 201.718 106.007 200.512 101.541C199.305 97.075 195.16 94.3213 191.267 95.3749Z" fill="#2E353A"/>
<path d="M198.768 107.443L190.932 109.586C189.061 110.097 187.066 109.88 185.347 108.978C183.628 108.077 182.312 106.558 181.664 104.725L179.095 97.4577C179.044 97.3142 179.023 97.1614 179.034 97.0093C179.044 96.8571 179.086 96.7087 179.157 96.5737C179.228 96.4386 179.326 96.3197 179.445 96.2246C179.563 96.1295 179.701 96.0601 179.848 96.021L201.444 90.1184C201.59 90.0777 201.744 90.068 201.895 90.0901C202.046 90.1121 202.19 90.1654 202.32 90.2464C202.449 90.3275 202.56 90.4346 202.645 90.561C202.731 90.6874 202.79 90.8302 202.817 90.9805L204.286 98.5353C204.657 100.444 204.294 102.422 203.27 104.074C202.247 105.726 200.639 106.929 198.768 107.443Z" fill="#15EBEB"/>
<path opacity="0.4" d="M198.768 107.443L190.932 109.586C189.061 110.097 187.066 109.88 185.347 108.978C183.628 108.077 182.312 106.558 181.664 104.725L179.095 97.4577C179.044 97.3142 179.023 97.1614 179.034 97.0093C179.044 96.8571 179.086 96.7087 179.157 96.5737C179.228 96.4386 179.326 96.3197 179.445 96.2246C179.563 96.1295 179.701 96.0601 179.848 96.021L201.444 90.1184C201.59 90.0777 201.744 90.068 201.895 90.0901C202.046 90.1121 202.19 90.1654 202.32 90.2464C202.449 90.3275 202.56 90.4346 202.645 90.561C202.731 90.6874 202.79 90.8302 202.817 90.9805L204.286 98.5353C204.657 100.444 204.294 102.422 203.27 104.074C202.247 105.726 200.639 106.929 198.768 107.443Z" fill="white"/>
<path d="M154.119 87.7014C151.979 87.3072 149.809 87.1029 147.633 87.0908C146.552 87.0843 145.471 87.1442 144.397 87.2704C143.859 87.3542 143.322 87.414 142.808 87.5457C142.545 87.6176 142.282 87.6535 142.032 87.7493L141.279 87.9888L140.419 88.2641L140.933 87.5098C142.381 85.3599 143.534 83.0242 144.361 80.5656C144.771 79.346 145.071 78.0918 145.257 76.8181C145.348 76.1872 145.404 75.5516 145.424 74.9144C145.46 74.2803 145.46 73.6448 145.424 73.0107C145.378 72.3829 145.29 71.7589 145.161 71.1429L144.934 70.233L144.635 69.3351C144.423 68.748 144.164 68.1794 143.859 67.6349C143.565 67.0858 143.234 66.5577 142.868 66.0545C142.498 65.5523 142.099 65.0725 141.673 64.6177L141.016 63.9473L140.3 63.3247C139.834 62.8937 139.284 62.5584 138.795 62.1274C138.305 61.6964 137.72 61.4569 137.182 61.1097L135.988 60.3195L137.313 59.6849C137.947 59.3736 138.615 59.0025 139.248 58.6193C139.882 58.2362 140.515 57.8411 141.136 57.4221C142.367 56.5809 143.536 55.6527 144.635 54.6444C145.173 54.1415 145.698 53.6267 146.212 53.0879C146.726 52.5491 147.192 51.9744 147.633 51.3997C148.075 50.825 148.505 50.2024 148.828 49.5918C149.214 48.9797 149.561 48.3439 149.867 47.6881C150.183 47.0368 150.454 46.3648 150.679 45.6767L150.99 44.647L151.217 43.5815C151.35 42.8781 151.43 42.1657 151.456 41.4503C151.519 40.0069 151.391 38.5614 151.074 37.152L150.835 36.0865L150.5 35.0448C150.297 34.3384 149.975 33.6799 149.712 32.9975C149.449 32.315 149.067 31.6804 148.744 31.01L147.036 27.4181L150.309 29.5253C150.882 29.9085 151.504 30.2796 152.184 30.6268C152.865 30.974 153.498 31.3093 154.167 31.6086C155.499 32.2322 156.872 32.7642 158.276 33.201C158.981 33.4045 159.685 33.5961 160.39 33.7517C161.095 33.9131 161.809 34.033 162.528 34.1109C163.237 34.2021 163.952 34.2461 164.666 34.2426C165.373 34.2373 166.079 34.1893 166.78 34.099L167.808 33.9194L168.823 33.644C169.479 33.4282 170.117 33.1641 170.734 32.8538C171.042 32.7055 171.337 32.5334 171.618 32.339C171.917 32.1644 172.201 31.9641 172.466 31.7403C173.014 31.3127 173.533 30.8487 174.019 30.3515C174.497 29.8347 174.939 29.2868 175.345 28.7112C175.766 28.1326 176.145 27.5244 176.479 26.8913C176.85 26.2807 177.1 25.5863 177.423 24.9397C177.745 24.2932 177.937 23.5748 178.199 22.8924L179.692 18.9653L180.433 23.06C180.558 23.7297 180.73 24.3898 180.947 25.0355C181.576 27.0378 182.537 28.9198 183.789 30.6029C184.615 31.7018 185.592 32.6774 186.692 33.5003C187.234 33.9144 187.809 34.2828 188.412 34.6018C189.014 34.9298 189.641 35.21 190.287 35.4399C190.935 35.6668 191.598 35.8508 192.27 35.9907C192.952 36.1283 193.642 36.2243 194.336 36.278C195.033 36.314 195.73 36.314 196.427 36.278C197.131 36.278 197.836 36.1822 198.541 36.1224C199.246 36.0625 199.95 35.8949 200.643 35.7871L202.733 35.2843L204.8 34.6617L206.842 33.9313L209.673 32.9136L208.049 35.4399C207.75 35.8829 207.451 36.4217 207.177 36.9365C206.902 37.4514 206.651 37.9782 206.412 38.5289C205.942 39.6025 205.571 40.7165 205.301 41.8574C205.034 42.983 204.902 44.1365 204.907 45.2936C204.92 46.4276 205.118 47.5519 205.492 48.622L205.815 49.4122L206.221 50.2862C206.513 50.7717 206.845 51.2322 207.213 51.6631C207.581 52.0907 207.98 52.4909 208.407 52.8604C208.849 53.2457 209.316 53.6017 209.804 53.926C210.289 54.2572 210.791 54.561 211.309 54.8359C211.823 55.1233 212.373 55.3388 212.91 55.6022L214.582 56.2368L216.302 56.7755L217.497 57.1587L216.493 57.9369C215.818 58.4627 215.183 59.039 214.594 59.661C214 60.2845 213.449 60.9486 212.946 61.6485C212.671 61.9957 212.456 62.3668 212.217 62.726C211.987 63.0879 211.78 63.4638 211.596 63.8515C211.386 64.2344 211.21 64.635 211.071 65.0488C210.905 65.4357 210.773 65.8363 210.676 66.2461C210.593 66.6651 210.449 67.0722 210.402 67.4433L210.282 68.7244C210.282 69.1555 210.282 69.5865 210.354 70.0175C210.378 70.4473 210.45 70.873 210.569 71.2866C210.647 71.6943 210.759 72.0948 210.903 72.4839L211.393 73.6812C211.558 74.0988 211.762 74.4997 212.002 74.8785L212.671 76.0758L212.922 76.4948H212.456C210.69 76.4995 208.931 76.7329 207.224 77.1892C206.37 77.4162 205.544 77.7416 204.764 78.159C204.57 78.2633 204.382 78.3793 204.202 78.5062C204.008 78.6162 203.828 78.7488 203.665 78.9014C203.487 79.032 203.319 79.1761 203.163 79.3324L202.697 79.8233L203.139 79.3084C203.284 79.1382 203.444 78.9819 203.617 78.8415C203.779 78.6821 203.955 78.5379 204.143 78.4105C204.322 78.2907 204.501 78.1471 204.692 78.0393C205.465 77.5752 206.286 77.1978 207.141 76.9139C208.86 76.3539 210.649 76.0356 212.456 75.968L212.253 76.3871L211.512 75.1898C211.244 74.814 211.012 74.413 210.82 73.9925L210.258 72.7952C210.08 72.3707 209.944 71.9295 209.852 71.4782C209.703 71.0403 209.607 70.5861 209.566 70.1253C209.566 69.6703 209.458 69.2033 209.446 68.7484V67.3476C209.446 66.8926 209.613 66.4376 209.685 65.9827C209.776 65.526 209.904 65.0775 210.067 64.6417C210.198 64.1956 210.37 63.7627 210.581 63.3486C210.76 62.9359 210.968 62.5358 211.202 62.1513C211.419 61.7397 211.658 61.34 211.919 60.9541C212.434 60.1904 213.005 59.466 213.627 58.787C214.249 58.0936 214.924 57.4492 215.645 56.8593L215.872 58.0566L214.069 57.5418L212.289 56.9072C211.704 56.6558 211.094 56.4283 210.545 56.129C209.972 55.8489 209.418 55.533 208.885 55.1831C208.338 54.8393 207.816 54.4594 207.32 54.0457C206.829 53.6295 206.374 53.1729 205.958 52.6808C205.513 52.1874 205.113 51.6544 204.764 51.0884L204.274 50.2264L203.88 49.3045C203.42 48.0855 203.162 46.7995 203.116 45.4971C203.068 44.1906 203.185 42.8834 203.462 41.6059C203.727 40.3499 204.103 39.1198 204.585 37.9303C204.824 37.3316 205.086 36.733 205.373 36.1822C205.66 35.6315 205.958 35.0568 206.329 34.4701L207.523 35.9787L205.397 36.7569L203.235 37.4274C202.494 37.631 201.754 37.7986 201.013 37.9782C200.273 38.1578 199.52 38.2655 198.756 38.3493C197.991 38.4552 197.222 38.5192 196.451 38.5409C195.655 38.5849 194.857 38.5849 194.062 38.5409C193.284 38.4843 192.51 38.3803 191.744 38.2296C190.972 38.0739 190.21 37.87 189.463 37.619C188.718 37.3531 187.992 37.0371 187.289 36.6731C186.583 36.3056 185.908 35.8812 185.271 35.404C183.997 34.4638 182.863 33.3471 181.902 32.0875C180.948 30.847 180.146 29.4964 179.513 28.0646C179.19 27.3546 178.907 26.6272 178.665 25.8856C178.407 25.13 178.2 24.358 178.044 23.5748L180.278 23.7424C180.003 24.4848 179.752 25.2391 179.454 25.9694C179.147 26.7085 178.805 27.4318 178.426 28.1365C178.078 28.8546 177.679 29.5468 177.232 30.2078C176.764 30.8784 176.253 31.5183 175.703 32.1234C175.133 32.7204 174.518 33.2728 173.864 33.7757C173.541 34.0357 173.198 34.268 172.836 34.4701C172.492 34.7006 172.133 34.9085 171.761 35.0927C171.018 35.4633 170.247 35.7755 169.456 36.0266L168.262 36.3259L167.067 36.5414C166.275 36.6424 165.477 36.6864 164.678 36.6731C163.879 36.6747 163.081 36.6227 162.289 36.5175C161.486 36.4219 160.688 36.282 159.9 36.0984C159.124 35.9308 158.36 35.7153 157.607 35.4758C156.111 35.0063 154.65 34.4301 153.235 33.7517C152.519 33.4285 151.826 33.0693 151.145 32.6981C150.464 32.327 149.795 31.9319 149.091 31.5008L150.655 30.0761C151.002 30.7945 151.372 31.4889 151.683 32.2312C152.002 32.9629 152.285 33.7101 152.531 34.4701L152.889 35.6674L153.152 36.8647C153.313 37.6561 153.432 38.4554 153.51 39.2593C153.557 40.0568 153.557 40.8563 153.51 41.6538C153.474 42.458 153.378 43.2584 153.224 44.0484L152.961 45.2457L152.602 46.443C152.341 47.2129 152.03 47.9648 151.671 48.6939C151.322 49.4195 150.923 50.1197 150.476 50.7891C150.039 51.4435 149.569 52.0749 149.067 52.6808C148.553 53.3034 148.028 53.8781 147.478 54.4648C146.929 55.0514 146.343 55.5663 145.758 56.0931C144.567 57.1202 143.31 58.0681 141.996 58.9306C141.335 59.3617 140.666 59.7608 139.989 60.1279C139.296 60.5111 138.615 60.8702 137.863 61.2055L137.947 59.7807C138.508 60.1638 139.141 60.5111 139.643 60.9062C140.144 61.3013 140.742 61.7083 141.231 62.1873L141.996 62.8817L142.7 63.624C143.16 64.1343 143.591 64.6699 143.99 65.2284C144.386 65.7975 144.741 66.3936 145.053 67.0123C145.371 67.6218 145.642 68.2541 145.866 68.904L146.164 69.8978L146.379 70.9035C146.506 71.5796 146.586 72.2637 146.618 72.9508C146.703 75.664 146.231 78.3657 145.233 80.8888C144.281 83.3877 143 85.7474 141.422 87.9049L141.076 87.426L141.876 87.1985C142.151 87.1147 142.426 87.0788 142.7 87.0189C143.238 86.8992 143.787 86.8633 144.337 86.7915C145.435 86.7257 146.536 86.7257 147.633 86.7915C149.817 86.9076 151.987 87.212 154.119 87.7014Z" fill="#15EBEB"/>
<path opacity="0.7" d="M154.119 87.7014C151.979 87.3072 149.809 87.1029 147.633 87.0908C146.552 87.0843 145.471 87.1442 144.397 87.2704C143.859 87.3542 143.322 87.414 142.808 87.5457C142.545 87.6176 142.282 87.6535 142.032 87.7493L141.279 87.9888L140.419 88.2641L140.933 87.5098C142.381 85.3599 143.534 83.0242 144.361 80.5656C144.771 79.346 145.071 78.0918 145.257 76.8181C145.348 76.1872 145.404 75.5516 145.424 74.9144C145.46 74.2803 145.46 73.6448 145.424 73.0107C145.378 72.3829 145.29 71.7589 145.161 71.1429L144.934 70.233L144.635 69.3351C144.423 68.748 144.164 68.1794 143.859 67.6349C143.565 67.0858 143.234 66.5577 142.868 66.0545C142.498 65.5523 142.099 65.0725 141.673 64.6177L141.016 63.9473L140.3 63.3247C139.834 62.8937 139.284 62.5584 138.795 62.1274C138.305 61.6964 137.72 61.4569 137.182 61.1097L135.988 60.3195L137.313 59.6849C137.947 59.3736 138.615 59.0025 139.248 58.6193C139.882 58.2362 140.515 57.8411 141.136 57.4221C142.367 56.5809 143.536 55.6527 144.635 54.6444C145.173 54.1415 145.698 53.6267 146.212 53.0879C146.726 52.5491 147.192 51.9744 147.633 51.3997C148.075 50.825 148.505 50.2024 148.828 49.5918C149.214 48.9797 149.561 48.3439 149.867 47.6881C150.183 47.0368 150.454 46.3648 150.679 45.6767L150.99 44.647L151.217 43.5815C151.35 42.8781 151.43 42.1657 151.456 41.4503C151.519 40.0069 151.391 38.5614 151.074 37.152L150.835 36.0865L150.5 35.0448C150.297 34.3384 149.975 33.6799 149.712 32.9975C149.449 32.315 149.067 31.6804 148.744 31.01L147.036 27.4181L150.309 29.5253C150.882 29.9085 151.504 30.2796 152.184 30.6268C152.865 30.974 153.498 31.3093 154.167 31.6086C155.499 32.2322 156.872 32.7642 158.276 33.201C158.981 33.4045 159.685 33.5961 160.39 33.7517C161.095 33.9131 161.809 34.033 162.528 34.1109C163.237 34.2021 163.952 34.2461 164.666 34.2426C165.373 34.2373 166.079 34.1893 166.78 34.099L167.808 33.9194L168.823 33.644C169.479 33.4282 170.117 33.1641 170.734 32.8538C171.042 32.7055 171.337 32.5334 171.618 32.339C171.917 32.1644 172.201 31.9641 172.466 31.7403C173.014 31.3127 173.533 30.8487 174.019 30.3515C174.497 29.8347 174.939 29.2868 175.345 28.7112C175.766 28.1326 176.145 27.5244 176.479 26.8913C176.85 26.2807 177.1 25.5863 177.423 24.9397C177.745 24.2932 177.937 23.5748 178.199 22.8924L179.692 18.9653L180.433 23.06C180.558 23.7297 180.73 24.3898 180.947 25.0355C181.576 27.0378 182.537 28.9198 183.789 30.6029C184.615 31.7018 185.592 32.6774 186.692 33.5003C187.234 33.9144 187.809 34.2828 188.412 34.6018C189.014 34.9298 189.641 35.21 190.287 35.4399C190.935 35.6668 191.598 35.8508 192.27 35.9907C192.952 36.1283 193.642 36.2243 194.336 36.278C195.033 36.314 195.73 36.314 196.427 36.278C197.131 36.278 197.836 36.1822 198.541 36.1224C199.246 36.0625 199.95 35.8949 200.643 35.7871L202.733 35.2843L204.8 34.6617L206.842 33.9313L209.673 32.9136L208.049 35.4399C207.75 35.8829 207.451 36.4217 207.177 36.9365C206.902 37.4514 206.651 37.9782 206.412 38.5289C205.942 39.6025 205.571 40.7165 205.301 41.8574C205.034 42.983 204.902 44.1365 204.907 45.2936C204.92 46.4276 205.118 47.5519 205.492 48.622L205.815 49.4122L206.221 50.2862C206.513 50.7717 206.845 51.2322 207.213 51.6631C207.581 52.0907 207.98 52.4909 208.407 52.8604C208.849 53.2457 209.316 53.6017 209.804 53.926C210.289 54.2572 210.791 54.561 211.309 54.8359C211.823 55.1233 212.373 55.3388 212.91 55.6022L214.582 56.2368L216.302 56.7755L217.497 57.1587L216.493 57.9369C215.818 58.4627 215.183 59.039 214.594 59.661C214 60.2845 213.449 60.9486 212.946 61.6485C212.671 61.9957 212.456 62.3668 212.217 62.726C211.987 63.0879 211.78 63.4638 211.596 63.8515C211.386 64.2344 211.21 64.635 211.071 65.0488C210.905 65.4357 210.773 65.8363 210.676 66.2461C210.593 66.6651 210.449 67.0722 210.402 67.4433L210.282 68.7244C210.282 69.1555 210.282 69.5865 210.354 70.0175C210.378 70.4473 210.45 70.873 210.569 71.2866C210.647 71.6943 210.759 72.0948 210.903 72.4839L211.393 73.6812C211.558 74.0988 211.762 74.4997 212.002 74.8785L212.671 76.0758L212.922 76.4948H212.456C210.69 76.4995 208.931 76.7329 207.224 77.1892C206.37 77.4162 205.544 77.7416 204.764 78.159C204.57 78.2633 204.382 78.3793 204.202 78.5062C204.008 78.6162 203.828 78.7488 203.665 78.9014C203.487 79.032 203.319 79.1761 203.163 79.3324L202.697 79.8233L203.139 79.3084C203.284 79.1382 203.444 78.9819 203.617 78.8415C203.779 78.6821 203.955 78.5379 204.143 78.4105C204.322 78.2907 204.501 78.1471 204.692 78.0393C205.465 77.5752 206.286 77.1978 207.141 76.9139C208.86 76.3539 210.649 76.0356 212.456 75.968L212.253 76.3871L211.512 75.1898C211.244 74.814 211.012 74.413 210.82 73.9925L210.258 72.7952C210.08 72.3707 209.944 71.9295 209.852 71.4782C209.703 71.0403 209.607 70.5861 209.566 70.1253C209.566 69.6703 209.458 69.2033 209.446 68.7484V67.3476C209.446 66.8926 209.613 66.4376 209.685 65.9827C209.776 65.526 209.904 65.0775 210.067 64.6417C210.198 64.1956 210.37 63.7627 210.581 63.3486C210.76 62.9359 210.968 62.5358 211.202 62.1513C211.419 61.7397 211.658 61.34 211.919 60.9541C212.434 60.1904 213.005 59.466 213.627 58.787C214.249 58.0936 214.924 57.4492 215.645 56.8593L215.872 58.0566L214.069 57.5418L212.289 56.9072C211.704 56.6558 211.094 56.4283 210.545 56.129C209.972 55.8489 209.418 55.533 208.885 55.1831C208.338 54.8393 207.816 54.4594 207.32 54.0457C206.829 53.6295 206.374 53.1729 205.958 52.6808C205.513 52.1874 205.113 51.6544 204.764 51.0884L204.274 50.2264L203.88 49.3045C203.42 48.0855 203.162 46.7995 203.116 45.4971C203.068 44.1906 203.185 42.8834 203.462 41.6059C203.727 40.3499 204.103 39.1198 204.585 37.9303C204.824 37.3316 205.086 36.733 205.373 36.1822C205.66 35.6315 205.958 35.0568 206.329 34.4701L207.523 35.9787L205.397 36.7569L203.235 37.4274C202.494 37.631 201.754 37.7986 201.013 37.9782C200.273 38.1578 199.52 38.2655 198.756 38.3493C197.991 38.4552 197.222 38.5192 196.451 38.5409C195.655 38.5849 194.857 38.5849 194.062 38.5409C193.284 38.4843 192.51 38.3803 191.744 38.2296C190.972 38.0739 190.21 37.87 189.463 37.619C188.718 37.3531 187.992 37.0371 187.289 36.6731C186.583 36.3056 185.908 35.8812 185.271 35.404C183.997 34.4638 182.863 33.3471 181.902 32.0875C180.948 30.847 180.146 29.4964 179.513 28.0646C179.19 27.3546 178.907 26.6272 178.665 25.8856C178.407 25.13 178.2 24.358 178.044 23.5748L180.278 23.7424C180.003 24.4848 179.752 25.2391 179.454 25.9694C179.147 26.7085 178.805 27.4318 178.426 28.1365C178.078 28.8546 177.679 29.5468 177.232 30.2078C176.764 30.8784 176.253 31.5183 175.703 32.1234C175.133 32.7204 174.518 33.2728 173.864 33.7757C173.541 34.0357 173.198 34.268 172.836 34.4701C172.492 34.7006 172.133 34.9085 171.761 35.0927C171.018 35.4633 170.247 35.7755 169.456 36.0266L168.262 36.3259L167.067 36.5414C166.275 36.6424 165.477 36.6864 164.678 36.6731C163.879 36.6747 163.081 36.6227 162.289 36.5175C161.486 36.4219 160.688 36.282 159.9 36.0984C159.124 35.9308 158.36 35.7153 157.607 35.4758C156.111 35.0063 154.65 34.4301 153.235 33.7517C152.519 33.4285 151.826 33.0693 151.145 32.6981C150.464 32.327 149.795 31.9319 149.091 31.5008L150.655 30.0761C151.002 30.7945 151.372 31.4889 151.683 32.2312C152.002 32.9629 152.285 33.7101 152.531 34.4701L152.889 35.6674L153.152 36.8647C153.313 37.6561 153.432 38.4554 153.51 39.2593C153.557 40.0568 153.557 40.8563 153.51 41.6538C153.474 42.458 153.378 43.2584 153.224 44.0484L152.961 45.2457L152.602 46.443C152.341 47.2129 152.03 47.9648 151.671 48.6939C151.322 49.4195 150.923 50.1197 150.476 50.7891C150.039 51.4435 149.569 52.0749 149.067 52.6808C148.553 53.3034 148.028 53.8781 147.478 54.4648C146.929 55.0514 146.343 55.5663 145.758 56.0931C144.567 57.1202 143.31 58.0681 141.996 58.9306C141.335 59.3617 140.666 59.7608 139.989 60.1279C139.296 60.5111 138.615 60.8702 137.863 61.2055L137.947 59.7807C138.508 60.1638 139.141 60.5111 139.643 60.9062C140.144 61.3013 140.742 61.7083 141.231 62.1873L141.996 62.8817L142.7 63.624C143.16 64.1343 143.591 64.6699 143.99 65.2284C144.386 65.7975 144.741 66.3936 145.053 67.0123C145.371 67.6218 145.642 68.2541 145.866 68.904L146.164 69.8978L146.379 70.9035C146.506 71.5796 146.586 72.2637 146.618 72.9508C146.703 75.664 146.231 78.3657 145.233 80.8888C144.281 83.3877 143 85.7474 141.422 87.9049L141.076 87.426L141.876 87.1985C142.151 87.1147 142.426 87.0788 142.7 87.0189C143.238 86.8992 143.787 86.8633 144.337 86.7915C145.435 86.7257 146.536 86.7257 147.633 86.7915C149.817 86.9076 151.987 87.212 154.119 87.7014Z" fill="white"/>
</svg>
